<?xml version="1.0" standalone="no"?>
<!DOCTYPE svg PUBLIC "-//W3C//DTD SVG 20010904//EN"
 "http://www.w3.org/TR/2001/REC-SVG-20010904/DTD/svg10.dtd">
<svg version="1.0" xmlns="http://www.w3.org/2000/svg"
 width="121.000000pt" height="121.000000pt" viewBox="0 0 121.000000 121.000000"
 preserveAspectRatio="xMidYMid meet">
<metadata>
Created by potrace 1.11, written by Peter Selinger 2001-2013
</metadata>
<g transform="translate(0.000000,121.000000) scale(0.100000,-0.100000)"
fill="#000000" stroke="none">
<path d="M450 1190 c-82 -22 -112 -35 -180 -81 -101 -67 -194 -181 -231 -282
-7 -20 -16 -34 -20 -31 -4 2 -11 -1 -15 -7 -3 -6 -2 -14 4 -18 7 -4 8 -19 2
-46 -25 -108 -3 -280 48 -382 57 -112 115 -176 222 -247 134 -89 295 -117 463
-81 207 44 402 237 452 446 28 119 17 266 -28 374 -74 178 -261 332 -441 364
-86 16 -201 12 -276 -9z"/>
</g>
</svg>
